<svg xmlns="http://www.w3.org/2000/svg" width="240" height="320" viewBox="0 0 240 320"><defs><linearGradient id="b" x2="1" y2="1"><stop stop-color="#292c35"/><stop offset="1" stop-color="#14171e"/></linearGradient><linearGradient id="s" x2="0" y2="1"><stop stop-color="#9be0fc"/><stop offset="1" stop-color="#3d95d0"/></linearGradient><linearGradient id="y" x2="0" y2="1"><stop stop-color="#ffeaa0"/><stop offset="1" stop-color="#e8b328"/></linearGradient><linearGradient id="r" x2="0" y2="1"><stop stop-color="#ffb2a2"/><stop offset="1" stop-color="#dc654a"/></linearGradient></defs><rect width="240" height="320" rx="22" fill="url(#b)"/><circle cx="120" cy="160" r="84" fill="#20252c" stroke="#8aa3b6" stroke-width="3"/><circle cx="120" cy="160" r="76" fill="none" stroke="#354552"/><path d="M119 152C96 142 90 127 96 113c7-15 32-17 44-4 14 18 0 35-21 43" fill="url(#s)"/><path d="M111 168c-2 25-15 41-32 38-17-2-25-24-16-39 13-21 32-14 48 1" fill="url(#y)"/><path d="M132 168c22-12 41-8 48 8 8 16-7 35-24 34-25-1-29-21-24-42" fill="url(#r)"/><circle cx="121" cy="166" r="7" fill="#c3d4da"/></svg>
